# xmcd
#
# Track frame offsets:
#	150
#	24842
#	42044
#	54776
#	78399
#	97315
#	115557
#	141699
#	163216
#	180805
#	196640
#	216461
#
# Disc length: 3117 seconds
#
# Revision: 0
# Processed by: cddbd v1.5.2PL0 Copyright (c) Steve Scherf et al.
# Submitted via: dBpowerAMP V4.0
#
DISCID=990c2b0c
DTITLE=The Sweet Vandals - The Sweet Vandals
DYEAR=2007
DGENRE=Funk Soul
TTITLE0=I Got You, Man
TTITLE1=Charly Love
TTITLE2=Papa's Got A Brand New Bag
TTITLE3=You Wanna Be My Lover
TTITLE4=You're Gettin' It
TTITLE5=Do It Right
TTITLE6=Beautiful
TTITLE7=Come On Now
TTITLE8=That's The Way I Am
TTITLE9=Nites Lites
TTITLE10=Too Much
TTITLE11=Runaway People
EXTD=
EXTT0=
EXTT1=
EXTT2=
EXTT3=
EXTT4=
EXTT5=
EXTT6=
EXTT7=
EXTT8=
EXTT9=
EXTT10=
EXTT11=
PLAYORDER=
